<svg version="1.1" xmlns="http://www.w3.org/2000/svg" xmlns:xlink="http://www.w3.org/1999/xlink" font-family="Arial" font-size="13" width="582" height="242">
	<desc>UML diagram model</desc>
	<g id="_fNLDoqTtEeWJIdgJ_zFBoQ">
		<defs>
			<linearGradient id="greyGradient" x1="0%" y1="0%" x2="0%" y2="100%" spreadMethod="pad">
				<stop offset="0%" stop-color="#FFFFFF" stop-opacity="1"/>
				<stop offset="100%" stop-color="#E5E5E5" stop-opacity="1"/>
				
			</linearGradient>
			<linearGradient id="packageGradient" x1="0%" y1="0%" x2="0%" y2="100%" spreadMethod="pad">
				<stop offset="0%" stop-color="#FFFFFF" stop-opacity="1"/>
				<stop offset="100%" stop-color="#EFE9DE" stop-opacity="1"/>
				
			</linearGradient>
			
		</defs>
		<g id="_kjg_cIcbEDOzqvwo3o5vuw">
			<rect x="260" y="2" width="62" height="80" rx="5" ry="0" fill="url(#greyGradient)" stroke="#CCCCCC" stroke-width="1"/>
			<text x="291" y="20" text-anchor="middle" font-style="normal" font-weight="bold" fill="#033656">Graph</text>
			<line x1="260" y1="29" x2="322" y2="29" stroke-width="1.0" stroke="#CCCCCC"/>
			<line x1="260" y1="36" x2="322" y2="36" stroke-width="1.0" stroke="#CCCCCC"/>
			
		</g>
		<g id="_mWKBwIcbEDOzqvwo3o5vuw">
			<rect x="50" y="112" width="62" height="80" rx="5" ry="0" fill="url(#greyGradient)" stroke="#CCCCCC" stroke-width="1"/>
			<text x="81" y="130" text-anchor="middle" font-style="normal" font-weight="bold" fill="#033656">Vertex</text>
			<line x1="50" y1="139" x2="112" y2="139" stroke-width="1.0" stroke="#CCCCCC"/>
			<line x1="50" y1="146" x2="112" y2="146" stroke-width="1.0" stroke="#CCCCCC"/>
			
		</g>
		<g id="_sE9-sIcbEDOzqvwo3o5vuw">
			<rect x="470" y="112" width="62" height="80" rx="5" ry="0" fill="url(#greyGradient)" stroke="#CCCCCC" stroke-width="1"/>
			<text x="501" y="130" text-anchor="middle" font-style="normal" font-weight="bold" fill="#033656">Edge</text>
			<line x1="470" y1="139" x2="532" y2="139" stroke-width="1.0" stroke="#CCCCCC"/>
			<line x1="470" y1="146" x2="532" y2="146" stroke-width="1.0" stroke="#CCCCCC"/>
			
		</g>
		<g id="_LlgNQIccEDOzqvwo3o5vuw">
			<polyline fill="none" stroke-width="1" stroke="#000000" points="260,58 112,135"/>
			<g transform="translate(260,58)">
				<g transform="rotate(63)">
					<polygon fill="#000000" stroke-width="1" stroke="#000000" points="-4,8 0,0 4,8 0, 16"/>
					
				</g>
				
			</g>
			
		</g>
		<g id="_MbWQIIccEDOzqvwo3o5vuw">
			<polyline fill="none" stroke-width="1" stroke="#000000" points="322,58 470,135"/>
			<g transform="translate(322,58)">
				<g transform="rotate(-63)">
					<polygon fill="#000000" stroke-width="1" stroke="#000000" points="-4,8 0,0 4,8 0, 16"/>
					
				</g>
				
			</g>
			
		</g>
		<g id="_WtuM8IceEDOzqvwo3o5vuw">
			<polyline fill="none" stroke-width="1" stroke="#000000" points="470,152 291,152"/>
			
		</g>
		<g id="_WtuM8IceEDOzqvwo3o5vuw">
			<polyline fill="none" stroke-width="1" stroke="#000000" points="291,152 291,152"/>
			
		</g>
		<g id="_WtuM8IceEDOzqvwo3o5vuw">
			<polyline fill="none" stroke-width="1" stroke="#000000" points="291,152 112,152"/>
			
		</g>
		<text x="94" y="105" fill="#000000">element</text>
		<text x="109" y="120" fill="#000000">*</text>
		<text x="213" y="44" fill="#000000">parent</text>
		<text x="225" y="85" fill="#000000">1</text>
		<text x="436" y="105" fill="#000000">element</text>
		<text x="445" y="124" fill="#000000">*</text>
		<text x="335" y="45" fill="#000000">parent</text>
		<text x="324" y="83" fill="#000000">1</text>
		<text x="119" y="169" fill="#000000">source</text>
		<text x="116" y="145" fill="#000000">2</text>
		<text x="437" y="166" fill="#000000">edge</text>
		<text x="441" y="145" fill="#000000">*</text>
		
	</g>
	
</svg>